<svg width="30" height="33" viewBox="0 0 30 33" fill="none" xmlns="http://www.w3.org/2000/svg">
<path fill-rule="evenodd" clip-rule="evenodd" d="M22.5327 16.5436H7.04122C6.83478 16.5436 6.66748 16.3611 6.66748 16.1354C6.66748 15.9101 6.83478 15.7275 7.04122 15.7275H22.5327C22.7392 15.7275 22.9064 15.9101 22.9064 16.1354C22.9064 16.3611 22.7392 16.5436 22.5327 16.5436Z" fill="#E29D4A"/>
<path fill-rule="evenodd" clip-rule="evenodd" d="M17.8924 21.5953C17.7968 21.5953 17.7008 21.5553 17.6275 21.4757C17.4816 21.3165 17.4816 21.058 17.6275 20.8983L21.9924 16.1357L17.6275 11.3735C17.4816 11.2139 17.4816 10.9553 17.6275 10.7961C17.7738 10.637 18.0107 10.637 18.157 10.7961L22.7857 15.8475C22.9315 16.0066 22.9315 16.2652 22.7857 16.4244L18.157 21.4757C18.0836 21.5553 17.9876 21.5953 17.8924 21.5953Z" fill="#E29D4A"/>
<path fill-rule="evenodd" clip-rule="evenodd" d="M14.7872 0.816091C7.04618 0.816091 0.748218 7.68803 0.748218 16.1351C0.748218 24.5826 7.04618 31.455 14.7872 31.455C22.5282 31.455 28.8262 24.5826 28.8262 16.1351C28.8262 7.68803 22.5282 0.816091 14.7872 0.816091ZM14.7873 32.2711C6.63379 32.2711 0 25.0327 0 16.1351C0 7.23795 6.63379 0 14.7873 0C22.9408 0 29.5745 7.23795 29.5745 16.1351C29.5745 25.0327 22.9408 32.2711 14.7873 32.2711Z" fill="#E29D4A"/>
</svg>
